<svg width="1961" height="785" viewBox="0 0 1961 785" fill="none" xmlns="http://www.w3.org/2000/svg">
<path d="M299.322 221.192C303.522 218.016 309.306 217.959 313.568 221.052L424.636 301.664L432.192 307.371C437.735 311.557 438.56 319.569 433.987 324.797L393.595 370.97C389.663 375.465 389.648 382.171 393.559 386.685L435.792 435.416C440.166 440.463 439.561 448.115 434.448 452.412L422.044 462.837L311.978 543.388C307.708 546.514 301.892 546.463 297.677 543.263L196.459 466.428C193.478 464.165 191.728 460.639 191.728 456.897V308.514C191.728 304.764 193.486 301.232 196.476 298.97L299.322 221.192Z" fill="#000D4D"/>
<rect width="35.9511" height="116.846" rx="11.9654" transform="matrix(-0.63872 -0.769439 0.8162 -0.57777 304.428 514.529)" fill="#790F59"/>
<rect width="35.7897" height="116.304" rx="11.9654" transform="matrix(0.684777 -0.728752 0.780376 0.62531 215.375 441.041)" fill="#790F59"/>
<path d="M388.736 310.839C394.129 314.657 395.08 321.874 390.86 326.959L381.92 337.729C377.7 342.814 369.906 343.841 364.512 340.023L278.906 279.429L295.487 259.453C299.708 254.368 307.502 253.341 312.896 257.158L388.736 310.839Z" fill="#790F59"/>
<path d="M334.718 393.258C330.44 398.295 322.633 399.235 317.281 395.359L307.962 388.608C302.61 384.731 301.739 377.506 306.018 372.469L369.21 298.075L388.22 311.845C393.572 315.722 394.442 322.947 390.164 327.984L334.718 393.258Z" fill="#790F59"/>
<path d="M305.705 387.543C301.468 382.472 302.396 375.253 307.778 371.418L317.167 364.729C322.549 360.895 330.347 361.897 334.584 366.969L392.984 436.869C397.221 441.94 396.293 449.16 390.911 452.994L381.522 459.683C376.14 463.518 368.342 462.515 364.105 457.444L305.705 387.543Z" fill="#790F59"/>
<rect width="39.5742" height="116.307" rx="11.9654" transform="matrix(0.685009 0.728534 0.780571 -0.625068 215.375 322.769)" fill="#790F59"/>
<rect x="219.489" y="312.355" width="39.1917" height="138.734" rx="11.9654" fill="#790F59"/>
<rect x="1147.47" y="358.134" width="28.8378" height="47.7974" transform="rotate(45 1147.47 358.134)" fill="#000D4D"/>
<rect x="1113" y="392.607" width="28.8378" height="47.7974" transform="rotate(-45 1113 392.607)" fill="#000D4D"/>
<rect x="1147.45" y="364.223" width="1.6066" height="40.165" transform="rotate(45 1147.45 364.223)" fill="#790F59"/>
<rect x="1160.79" y="377.571" width="1.6066" height="40.165" transform="rotate(45 1160.79 377.571)" fill="#790F59"/>
<rect x="1150.85" y="395.464" width="1.6066" height="20.4842" transform="rotate(45 1150.85 395.464)" fill="#790F59"/>
<rect x="1160.23" y="404.836" width="1.6066" height="20.4842" transform="rotate(45 1160.23 404.836)" fill="#790F59"/>
<rect x="1149.72" y="396.6" width="1.6066" height="14.8611" transform="rotate(-45 1149.72 396.6)" fill="#790F59"/>
<rect x="1136.37" y="409.948" width="1.6066" height="14.8611" transform="rotate(-45 1136.37 409.948)" fill="#790F59"/>
<rect x="1140.91" y="405.405" width="1.6066" height="14.8611" transform="rotate(-45 1140.91 405.405)" fill="#790F59"/>
<rect x="1145.17" y="401.144" width="1.6066" height="14.8611" transform="rotate(-45 1145.17 401.144)" fill="#790F59"/>
<rect x="1156.25" y="373.027" width="1.6066" height="34.5419" transform="rotate(45 1156.25 373.027)" fill="#790F59"/>
<rect x="1151.99" y="368.767" width="1.6066" height="34.5419" transform="rotate(45 1151.99 368.767)" fill="#790F59"/>
<rect x="1146.31" y="365.359" width="1.6066" height="20.4842" transform="rotate(-45 1146.31 365.359)" fill="#790F59"/>
<rect x="1119.04" y="392.624" width="1.6066" height="20.4842" transform="rotate(-45 1119.04 392.624)" fill="#790F59"/>
<rect x="1127.56" y="393.192" width="1.6066" height="7.63135" transform="rotate(-45 1127.56 393.192)" fill="#790F59"/>
<rect x="1751.8" y="427.317" width="28.8378" height="47.7974" transform="rotate(-135 1751.8 427.317)" fill="#000D4D"/>
<rect x="1786.27" y="392.843" width="28.8378" height="47.7974" transform="rotate(135 1786.27 392.843)" fill="#000D4D"/>
<rect x="1751.83" y="421.228" width="1.6066" height="40.165" transform="rotate(-135 1751.83 421.228)" fill="#790F59"/>
<rect x="1738.48" y="407.879" width="1.6066" height="40.165" transform="rotate(-135 1738.48 407.879)" fill="#790F59"/>
<rect x="1748.42" y="389.986" width="1.6066" height="20.4842" transform="rotate(-135 1748.42 389.986)" fill="#790F59"/>
<rect x="1739.05" y="380.614" width="1.6066" height="20.4842" transform="rotate(-135 1739.05 380.614)" fill="#790F59"/>
<rect x="1749.55" y="388.85" width="1.6066" height="14.8611" transform="rotate(135 1749.55 388.85)" fill="#790F59"/>
<rect x="1762.9" y="375.502" width="1.6066" height="14.8611" transform="rotate(135 1762.9 375.502)" fill="#790F59"/>
<rect x="1758.36" y="380.046" width="1.6066" height="14.8611" transform="rotate(135 1758.36 380.046)" fill="#790F59"/>
<rect x="1754.1" y="384.306" width="1.6066" height="14.8611" transform="rotate(135 1754.1 384.306)" fill="#790F59"/>
<rect x="1743.02" y="412.423" width="1.6066" height="34.5419" transform="rotate(-135 1743.02 412.423)" fill="#790F59"/>
<rect x="1747.28" y="416.683" width="1.6066" height="34.5419" transform="rotate(-135 1747.28 416.683)" fill="#790F59"/>
<rect x="1752.96" y="420.092" width="1.6066" height="20.4842" transform="rotate(135 1752.96 420.092)" fill="#790F59"/>
<rect x="1780.23" y="392.826" width="1.6066" height="20.4842" transform="rotate(135 1780.23 392.826)" fill="#790F59"/>
<rect x="1771.71" y="392.259" width="1.6066" height="7.63135" transform="rotate(135 1771.71 392.259)" fill="#790F59"/>
<g filter="url(#filter0_d_111_172)">
<path d="M523.454 378.405C523.454 365.157 526.412 353.324 532.329 342.906C538.374 332.359 546.542 324.191 556.831 318.403C567.25 312.486 578.89 309.528 591.752 309.528C606.801 309.528 619.985 313.387 631.304 321.104C642.623 328.821 650.533 339.497 655.035 353.131H623.972C620.886 346.7 616.512 341.877 610.853 338.661C605.322 335.446 598.891 333.838 591.56 333.838C583.714 333.838 576.704 335.703 570.53 339.433C564.484 343.034 559.725 348.179 556.253 354.868C552.908 361.556 551.236 369.402 551.236 378.405C551.236 387.28 552.908 395.126 556.253 401.943C559.725 408.632 564.484 413.841 570.53 417.571C576.704 421.173 583.714 422.973 591.56 422.973C598.891 422.973 605.322 421.365 610.853 418.15C616.512 414.806 620.886 409.918 623.972 403.487H655.035C650.533 417.25 642.623 427.99 631.304 435.707C620.114 443.296 606.93 447.09 591.752 447.09C578.89 447.09 567.25 444.196 556.831 438.408C546.542 432.491 538.374 424.324 532.329 413.905C526.412 403.487 523.454 391.654 523.454 378.405ZM705.116 355.639C708.589 349.98 713.091 345.542 718.622 342.327C724.281 339.111 730.712 337.503 737.915 337.503V365.865H730.776C722.287 365.865 715.856 367.858 711.483 371.846C707.239 375.833 705.116 382.779 705.116 392.683V445.932H678.105V339.047H705.116V355.639ZM858.363 339.047L792.187 496.481H763.44L786.592 443.231L743.76 339.047H774.051L801.64 413.712L829.616 339.047H858.363ZM899.934 354.482C903.407 349.594 908.166 345.542 914.211 342.327C920.385 338.983 927.395 337.311 935.241 337.311C944.373 337.311 952.605 339.561 959.937 344.063C967.397 348.565 973.249 354.996 977.494 363.357C981.867 371.588 984.054 381.171 984.054 392.104C984.054 403.037 981.867 412.748 977.494 421.237C973.249 429.597 967.397 436.093 959.937 440.723C952.605 445.354 944.373 447.669 935.241 447.669C927.395 447.669 920.45 446.061 914.404 442.845C908.488 439.63 903.664 435.578 899.934 430.691V496.867H872.924V339.047H899.934V354.482ZM956.464 392.104C956.464 385.673 955.113 380.142 952.412 375.511C949.84 370.752 946.367 367.151 941.994 364.707C937.749 362.263 933.119 361.041 928.103 361.041C923.215 361.041 918.585 362.328 914.211 364.9C909.967 367.344 906.494 370.945 903.793 375.704C901.221 380.463 899.934 386.059 899.934 392.49C899.934 398.921 901.221 404.516 903.793 409.275C906.494 414.034 909.967 417.7 914.211 420.272C918.585 422.716 923.215 423.938 928.103 423.938C933.119 423.938 937.749 422.652 941.994 420.079C946.367 417.507 949.84 413.841 952.412 409.082C955.113 404.323 956.464 398.664 956.464 392.104ZM1035.13 361.234V412.941C1035.13 416.542 1035.97 419.179 1037.64 420.851C1039.44 422.394 1042.4 423.166 1046.51 423.166H1059.05V445.932H1042.08C1019.31 445.932 1007.93 434.871 1007.93 412.748V361.234H995.192V339.047H1007.93V312.615H1035.13V339.047H1059.05V361.234H1035.13Z" fill="#790F59"/>
</g>
<g filter="url(#filter1_d_111_172)">
<path d="M1208.35 326.313C1203.59 326.313 1199.6 324.834 1196.38 321.876C1193.3 318.789 1191.75 314.995 1191.75 310.493C1191.75 305.991 1193.3 302.261 1196.38 299.303C1199.6 296.216 1203.59 294.672 1208.35 294.672C1213.11 294.672 1217.03 296.216 1220.12 299.303C1223.33 302.261 1224.94 305.991 1224.94 310.493C1224.94 314.995 1223.33 318.789 1220.12 321.876C1217.03 324.834 1213.11 326.313 1208.35 326.313ZM1221.66 339.047V445.932H1194.65V339.047H1221.66ZM1307.58 337.503C1320.31 337.503 1330.6 341.555 1338.45 349.658C1346.29 357.633 1350.21 368.823 1350.21 383.229V445.932H1323.2V386.895C1323.2 378.405 1321.08 371.91 1316.84 367.408C1312.59 362.778 1306.8 360.463 1299.47 360.463C1292.01 360.463 1286.1 362.778 1281.72 367.408C1277.48 371.91 1275.36 378.405 1275.36 386.895V445.932H1248.35V339.047H1275.36V352.359C1278.96 347.729 1283.52 344.128 1289.05 341.555C1294.71 338.854 1300.89 337.503 1307.58 337.503ZM1407.35 361.234V412.941C1407.35 416.542 1408.18 419.179 1409.86 420.851C1411.66 422.394 1414.62 423.166 1418.73 423.166H1431.27V445.932H1414.29C1391.53 445.932 1380.14 434.871 1380.14 412.748V361.234H1367.41V339.047H1380.14V312.615H1407.35V339.047H1431.27V361.234H1407.35ZM1550.06 390.174C1550.06 394.033 1549.8 397.506 1549.29 400.593H1471.15C1471.79 408.31 1474.5 414.356 1479.25 418.729C1484.01 423.102 1489.87 425.288 1496.81 425.288C1506.84 425.288 1513.98 420.98 1518.23 412.362H1547.36C1544.27 422.652 1538.36 431.141 1529.61 437.829C1520.86 444.389 1510.12 447.669 1497.39 447.669C1487.1 447.669 1477.84 445.418 1469.61 440.916C1461.5 436.286 1455.14 429.79 1450.51 421.43C1446.01 413.069 1443.75 403.423 1443.75 392.49C1443.75 381.428 1446.01 371.717 1450.51 363.357C1455.01 354.996 1461.31 348.565 1469.41 344.063C1477.52 339.561 1486.84 337.311 1497.39 337.311C1507.55 337.311 1516.62 339.497 1524.59 343.87C1532.7 348.243 1538.93 354.482 1543.31 362.585C1547.81 370.56 1550.06 379.756 1550.06 390.174ZM1522.09 382.457C1521.96 375.511 1519.45 369.981 1514.56 365.865C1509.67 361.62 1503.69 359.498 1496.62 359.498C1489.93 359.498 1484.27 361.556 1479.64 365.672C1475.14 369.659 1472.37 375.254 1471.34 382.457H1522.09ZM1596.79 303.161V445.932H1569.78V303.161H1596.79ZM1650.48 303.161V445.932H1623.47V303.161H1650.48ZM1690.87 326.313C1686.11 326.313 1682.12 324.834 1678.91 321.876C1675.82 318.789 1674.28 314.995 1674.28 310.493C1674.28 305.991 1675.82 302.261 1678.91 299.303C1682.12 296.216 1686.11 294.672 1690.87 294.672C1695.63 294.672 1699.55 296.216 1702.64 299.303C1705.85 302.261 1707.46 305.991 1707.46 310.493C1707.46 314.995 1705.85 318.789 1702.64 321.876C1699.55 324.834 1695.63 326.313 1690.87 326.313ZM1704.18 339.047V445.932H1677.17V339.047H1704.18Z" fill="#1E254B"/>
</g>
<g filter="url(#filter2_d_111_172)">
<path d="M1894.11 447.669C1883.82 447.669 1874.56 445.418 1866.33 440.916C1858.1 436.286 1851.6 429.79 1846.84 421.43C1842.21 413.069 1839.9 403.423 1839.9 392.49C1839.9 381.557 1842.27 371.91 1847.03 363.55C1851.92 355.189 1858.55 348.758 1866.91 344.256C1875.27 339.626 1884.59 337.311 1894.88 337.311C1905.17 337.311 1914.5 339.626 1922.86 344.256C1931.22 348.758 1937.78 355.189 1942.54 363.55C1947.42 371.91 1949.87 381.557 1949.87 392.49C1949.87 403.423 1947.36 413.069 1942.34 421.43C1937.46 429.79 1930.77 436.286 1922.28 440.916C1913.92 445.418 1904.53 447.669 1894.11 447.669ZM1894.11 424.131C1899 424.131 1903.56 422.973 1907.81 420.658C1912.18 418.214 1915.65 414.613 1918.23 409.854C1920.8 405.095 1922.09 399.307 1922.09 392.49C1922.09 382.328 1919.38 374.547 1913.98 369.145C1908.71 363.614 1902.21 360.849 1894.5 360.849C1886.78 360.849 1880.28 363.614 1875.01 369.145C1869.86 374.547 1867.29 382.328 1867.29 392.49C1867.29 402.651 1869.8 410.497 1874.82 416.028C1879.96 421.43 1886.39 424.131 1894.11 424.131Z" fill="#1E254B"/>
</g>
<defs>
<filter id="filter0_d_111_172" x="512.65" y="309.528" width="557.207" height="208.946" filterUnits="userSpaceOnUse" color-interpolation-filters="sRGB">
<feFlood flood-opacity="0" result="BackgroundImageFix"/>
<feColorMatrix in="SourceAlpha" type="matrix" values="0 0 0 0 0 0 0 0 0 0 0 0 0 0 0 0 0 0 127 0" result="hardAlpha"/>
<feOffset dy="10.8038"/>
<feGaussianBlur stdDeviation="5.40188"/>
<feComposite in2="hardAlpha" operator="out"/>
<feColorMatrix type="matrix" values="0 0 0 0 0 0 0 0 0 0 0 0 0 0 0 0 0 0 0.25 0"/>
<feBlend mode="normal" in2="BackgroundImageFix" result="effect1_dropShadow_111_172"/>
<feBlend mode="normal" in="SourceGraphic" in2="effect1_dropShadow_111_172" result="shape"/>
</filter>
<filter id="filter1_d_111_172" x="1180.95" y="294.672" width="537.315" height="174.604" filterUnits="userSpaceOnUse" color-interpolation-filters="sRGB">
<feFlood flood-opacity="0" result="BackgroundImageFix"/>
<feColorMatrix in="SourceAlpha" type="matrix" values="0 0 0 0 0 0 0 0 0 0 0 0 0 0 0 0 0 0 127 0" result="hardAlpha"/>
<feOffset dy="10.8038"/>
<feGaussianBlur stdDeviation="5.40188"/>
<feComposite in2="hardAlpha" operator="out"/>
<feColorMatrix type="matrix" values="0 0 0 0 0 0 0 0 0 0 0 0 0 0 0 0 0 0 0.25 0"/>
<feBlend mode="normal" in2="BackgroundImageFix" result="effect1_dropShadow_111_172"/>
<feBlend mode="normal" in="SourceGraphic" in2="effect1_dropShadow_111_172" result="shape"/>
</filter>
<filter id="filter2_d_111_172" x="1829.09" y="337.311" width="131.58" height="131.966" filterUnits="userSpaceOnUse" color-interpolation-filters="sRGB">
<feFlood flood-opacity="0" result="BackgroundImageFix"/>
<feColorMatrix in="SourceAlpha" type="matrix" values="0 0 0 0 0 0 0 0 0 0 0 0 0 0 0 0 0 0 127 0" result="hardAlpha"/>
<feOffset dy="10.8038"/>
<feGaussianBlur stdDeviation="5.40188"/>
<feComposite in2="hardAlpha" operator="out"/>
<feColorMatrix type="matrix" values="0 0 0 0 0 0 0 0 0 0 0 0 0 0 0 0 0 0 0.25 0"/>
<feBlend mode="normal" in2="BackgroundImageFix" result="effect1_dropShadow_111_172"/>
<feBlend mode="normal" in="SourceGraphic" in2="effect1_dropShadow_111_172" result="shape"/>
</filter>
</defs>
</svg>
