<?xml version="1.0" standalone="no"?>
<!DOCTYPE svg PUBLIC "-//W3C//DTD SVG 20010904//EN"
 "http://www.w3.org/TR/2001/REC-SVG-20010904/DTD/svg10.dtd">
<svg version="1.0" xmlns="http://www.w3.org/2000/svg"
 width="512.000000pt" height="512.000000pt" viewBox="0 0 512.000000 512.000000"
 preserveAspectRatio="xMidYMid meet">
<metadata>
Created by potrace 1.16, written by Peter Selinger 2001-2019
</metadata>
<g transform="translate(0.000000,512.000000) scale(0.100000,-0.100000)"
fill="#790f59" stroke="none">
<path d="M412 4979 c-140 -27 -248 -151 -273 -311 -6 -39 -8 -667 -7 -1653 l3
-1590 28 -57 c35 -71 109 -139 185 -170 l57 -23 727 -3 728 -3 0 -199 0 -199
-57 -6 c-90 -11 -166 -49 -226 -115 -79 -85 -92 -130 -92 -322 0 -138 2 -159
18 -175 17 -17 72 -18 1057 -18 985 0 1040 1 1057 18 16 16 18 38 18 180 0
156 -1 164 -28 222 -54 116 -162 195 -289 210 l-58 6 0 200 0 199 708 0 c787
0 769 -1 869 66 55 38 113 114 135 179 11 33 13 332 13 1670 l0 1630 -28 61
c-36 77 -104 145 -182 181 l-60 28 -2130 1 c-1172 1 -2149 -2 -2173 -7z m4282
-151 c53 -16 118 -81 134 -134 9 -32 12 -346 12 -1363 l0 -1321 -2280 0 -2280
0 2 1333 3 1332 31 55 c25 43 42 61 84 83 l52 27 2100 0 c1633 0 2110 -3 2142
-12z m146 -3145 c0 -98 -5 -195 -11 -216 -13 -49 -63 -105 -114 -128 -38 -18
-131 -19 -2149 -19 -1587 0 -2118 3 -2148 12 -50 15 -111 76 -126 126 -7 24
-12 111 -12 221 l0 181 2280 0 2280 0 0 -177z m-1730 -713 l0 -200 -550 0
-550 0 0 200 0 200 550 0 550 0 0 -200z m234 -362 c53 -16 121 -84 135 -134 6
-22 11 -74 11 -116 l0 -78 -930 0 -930 0 0 78 c0 42 5 94 11 116 13 47 82 118
129 133 53 17 1518 17 1574 1z"/>
<path d="M2350 4411 c-372 -79 -668 -363 -766 -736 -23 -87 -27 -120 -27 -250
0 -130 4 -163 27 -250 119 -452 511 -755 976 -755 465 0 858 304 976 755 23
86 27 120 27 250 0 131 -3 163 -26 249 -101 378 -396 659 -772 737 -117 24
-299 24 -415 0z m391 -147 c302 -69 541 -288 637 -584 153 -472 -143 -982
-637 -1094 -87 -20 -263 -21 -351 -2 -158 34 -292 103 -407 210 -373 347 -375
908 -6 1257 110 103 235 171 388 210 92 23 281 25 376 3z"/>
<path d="M2535 4050 c-29 -11 -43 -30 -47 -64 -2 -25 -10 -32 -45 -43 -59 -20
-127 -84 -160 -151 -23 -47 -28 -70 -27 -132 0 -170 109 -286 288 -309 93 -11
136 -39 161 -106 30 -78 -3 -158 -81 -195 -52 -26 -96 -23 -149 10 -36 22 -75
90 -75 132 0 84 -130 98 -145 15 -21 -108 77 -263 189 -300 35 -11 41 -18 44
-44 9 -88 135 -88 144 0 3 26 9 33 45 44 59 20 127 84 160 151 23 47 28 70 27
132 0 170 -109 286 -288 309 -93 11 -136 39 -161 106 -30 78 3 158 81 195 51
25 97 22 151 -11 33 -21 73 -90 73 -128 0 -59 49 -90 105 -67 41 18 52 57 35
131 -22 99 -99 190 -184 218 -35 11 -41 18 -44 44 -5 49 -54 81 -97 63z"/>
<path d="M660 1663 c-34 -13 -50 -37 -50 -73 0 -64 16 -70 176 -70 164 0 184
7 184 69 0 66 -21 76 -169 78 -69 1 -133 0 -141 -4z"/>
</g>
</svg>
