<?xml version="1.0" standalone="no"?>
<!DOCTYPE svg PUBLIC "-//W3C//DTD SVG 20010904//EN"
 "http://www.w3.org/TR/2001/REC-SVG-20010904/DTD/svg10.dtd">
<svg version="1.0" xmlns="http://www.w3.org/2000/svg"
 width="512.000000pt" height="512.000000pt" viewBox="0 0 512.000000 512.000000"
 preserveAspectRatio="xMidYMid meet">
<metadata>
Created by potrace 1.16, written by Peter Selinger 2001-2019
</metadata>
<g transform="translate(0.000000,512.000000) scale(0.100000,-0.100000)"
fill="#790f59" stroke="none">
<path d="M275 4686 c-107 -34 -195 -108 -243 -205 l-27 -56 0 -1680 0 -1680
29 -60 c38 -76 105 -143 181 -181 l60 -29 1427 -3 1427 -2 -19 -43 c-33 -71
-23 -145 26 -189 11 -9 86 -44 168 -78 124 -52 156 -61 189 -57 67 9 99 43
141 148 l16 39 65 0 65 0 15 -38 c31 -77 51 -107 85 -130 52 -35 108 -26 275
44 116 49 143 65 162 93 29 42 30 109 4 168 l-20 42 272 3 272 3 58 28 c75 37
146 108 183 182 l29 60 3 536 c3 531 3 535 -18 554 -27 24 -83 25 -109 1 -19
-18 -20 -33 -23 -525 l-3 -506 -31 -55 c-43 -76 -103 -113 -192 -118 -52 -4
-64 -2 -59 9 3 8 28 69 56 136 28 67 51 132 51 144 0 13 -9 42 -21 66 -17 36
-31 48 -84 73 -34 16 -68 30 -74 30 -7 0 -11 25 -11 68 l0 68 73 35 c82 39
117 80 117 138 0 35 -93 279 -125 328 -23 34 -74 63 -113 63 -19 0 -63 -12
-98 -26 -36 -14 -66 -24 -67 -22 -1 2 -21 24 -45 49 l-43 45 26 57 c32 73 33
133 2 178 -19 28 -47 45 -167 96 -221 95 -274 88 -337 -47 l-35 -75 -64 0 -64
0 -22 55 c-39 100 -83 140 -153 140 -43 0 -320 -119 -350 -151 -41 -42 -45
-106 -11 -188 14 -36 25 -65 23 -66 -1 -1 -23 -21 -49 -44 l-46 -42 -66 27
c-77 30 -127 29 -175 -5 -42 -30 -155 -296 -155 -363 1 -66 34 -106 115 -140
l64 -26 3 -68 2 -69 -72 -30 c-80 -34 -107 -62 -115 -122 -4 -32 5 -64 48
-174 30 -74 56 -137 57 -142 2 -4 -547 -6 -1220 -5 l-1225 3 -48 30 c-33 21
-57 47 -79 85 l-31 55 -3 1283 -3 1282 2411 0 2410 0 0 -628 c0 -597 1 -630
18 -645 26 -23 94 -22 116 1 15 18 16 95 14 1013 l-3 994 -27 56 c-38 76 -109
146 -188 183 l-65 31 -613 3 -612 3 -25 -25 c-39 -39 -27 -103 22 -125 17 -8
199 -11 599 -11 633 0 615 2 682 -63 73 -70 76 -83 80 -369 l4 -258 -2412 0
-2412 0 4 258 c4 286 7 299 80 369 70 68 -45 63 1572 63 1052 0 1472 3 1489
11 49 22 61 86 22 124 l-24 25 -1488 -1 c-1173 0 -1496 -3 -1528 -13z m3230
-2368 c44 -115 39 -113 220 -114 180 -2 172 -6 220 111 l30 73 95 -40 c52 -21
99 -43 103 -47 5 -5 -5 -42 -22 -82 -17 -41 -31 -84 -31 -97 0 -30 210 -242
239 -242 11 0 55 14 97 30 42 17 80 27 84 23 7 -7 80 -188 80 -197 0 -2 -36
-18 -80 -36 -43 -17 -85 -39 -91 -47 -9 -10 -13 -62 -14 -165 -1 -133 1 -153
18 -174 10 -13 22 -24 27 -24 4 0 38 -13 74 -29 l65 -30 -41 -100 c-23 -56
-47 -101 -53 -101 -6 0 -42 13 -80 30 -39 16 -80 30 -92 30 -25 0 -227 -194
-238 -229 -4 -15 4 -49 26 -102 18 -46 28 -84 23 -89 -10 -9 -180 -80 -192
-80 -5 0 -23 36 -40 79 -18 44 -39 84 -47 91 -9 8 -67 12 -166 14 -124 1 -156
-1 -170 -14 -10 -8 -33 -49 -50 -90 -17 -41 -32 -76 -34 -78 -5 -5 -205 81
-205 88 0 4 14 40 30 78 17 39 30 82 30 96 0 19 -28 53 -105 131 -121 122
-127 124 -242 76 l-70 -29 -43 105 c-23 57 -41 105 -39 107 2 2 37 16 76 31
107 42 107 40 109 213 1 106 -2 153 -12 168 -7 12 -48 35 -93 54 l-80 32 19
46 c33 83 64 157 66 161 2 2 37 -11 78 -28 109 -45 119 -43 196 37 36 37 82
82 102 100 53 46 55 66 16 163 l-33 84 100 42 c55 22 103 42 106 42 3 1 18
-32 34 -71z"/>
<path d="M3580 1951 c-139 -45 -236 -129 -297 -258 -34 -70 -38 -88 -41 -176
-5 -121 14 -203 68 -285 139 -213 400 -288 625 -178 168 83 266 243 266 437 1
221 -134 399 -350 463 -72 21 -200 20 -271 -3z m253 -161 c92 -34 170 -118
198 -212 15 -52 12 -143 -7 -200 -24 -74 -118 -168 -194 -193 -163 -56 -334
19 -405 176 -24 55 -27 71 -23 143 3 66 10 91 33 135 78 143 248 207 398 151z"/>
<path d="M3644 1566 c-85 -85 -7 -217 111 -185 92 26 105 164 18 208 -44 22
-92 14 -129 -23z"/>
<path d="M571 4323 c-96 -50 -106 -182 -20 -246 38 -28 106 -32 148 -10 96 50
106 182 20 246 -38 28 -106 32 -148 10z"/>
<path d="M1000 4322 c-122 -61 -97 -243 37 -268 91 -17 167 47 167 140 0 112
-105 178 -204 128z"/>
<path d="M1435 4326 c-16 -7 -41 -26 -55 -41 -21 -22 -25 -36 -25 -90 0 -54 4
-67 25 -90 53 -57 113 -69 178 -36 48 25 72 67 72 126 0 58 -22 97 -70 124
-43 24 -82 26 -125 7z"/>
<path d="M452 3409 c-23 -12 -52 -35 -65 -53 -22 -31 -22 -33 -25 -486 -2
-313 1 -463 8 -481 16 -37 68 -84 109 -98 45 -15 1749 -16 1803 -1 39 11 104
75 113 112 3 13 4 226 3 473 -3 449 -3 450 -26 482 -12 17 -42 41 -65 52 -42
21 -56 21 -631 21 l-587 0 -24 -25 c-16 -15 -25 -36 -25 -55 0 -19 9 -40 25
-55 l24 -25 576 0 575 0 -2 -412 -3 -413 -855 0 -855 0 -3 413 -2 412 114 0
c132 0 161 9 176 56 12 37 -6 86 -35 98 -9 3 -76 6 -148 6 -114 0 -138 -3
-175 -21z"/>
<path d="M2644 3336 c-48 -21 -61 -89 -24 -126 20 -20 33 -20 660 -20 l639 0
21 22 c38 42 22 108 -31 127 -51 17 -1224 14 -1265 -3z"/>
<path d="M4194 3336 c-49 -22 -61 -84 -24 -124 20 -21 27 -22 255 -22 222 0
236 1 255 20 28 28 27 90 -1 116 -19 17 -41 19 -238 21 -167 2 -223 0 -247
-11z"/>
<path d="M2620 3000 c-12 -12 -20 -33 -20 -55 0 -22 8 -43 20 -55 20 -20 33
-20 1033 -20 970 0 1015 1 1030 18 23 26 22 94 -1 115 -17 16 -103 17 -1030
17 -999 0 -1012 0 -1032 -20z"/>
<path d="M1576 2037 c-25 -14 -48 -39 -63 -66 -23 -44 -23 -49 -23 -360 0
-363 3 -376 81 -428 l42 -28 298 -3 c194 -2 312 1 339 8 53 14 107 63 120 108
7 24 10 151 8 363 l-3 326 -27 35 c-51 67 -59 68 -415 68 -311 0 -319 -1 -357
-23z m632 -135 c9 -7 12 -73 10 -298 l-3 -289 -280 0 -280 0 -3 284 c-2 201 1
288 9 297 9 11 63 14 273 14 143 0 267 -4 274 -8z"/>
<path d="M440 1960 c-12 -12 -20 -33 -20 -55 0 -22 8 -43 20 -55 19 -19 33
-20 408 -20 439 0 422 -3 422 77 0 75 13 73 -423 73 -374 0 -388 -1 -407 -20z"/>
<path d="M440 1640 c-26 -26 -27 -83 -1 -109 11 -11 35 -23 53 -26 18 -3 191
-5 384 -3 330 3 353 4 373 22 15 14 21 31 21 62 0 76 9 74 -427 74 -370 0
-384 -1 -403 -20z"/>
</g>
</svg>
