<?xml version="1.0" standalone="no"?>
<!DOCTYPE svg PUBLIC "-//W3C//DTD SVG 20010904//EN"
 "http://www.w3.org/TR/2001/REC-SVG-20010904/DTD/svg10.dtd">
<svg version="1.0" xmlns="http://www.w3.org/2000/svg"
 width="4096.000000pt" height="4096.000000pt" viewBox="0 0 4096.000000 4096.000000"
 preserveAspectRatio="xMidYMid meet">
<metadata>
Created by potrace 1.16, written by Peter Selinger 2001-2019
</metadata>
<g transform="translate(0.000000,4096.000000) scale(0.100000,-0.100000)"
fill="#ADADAD" stroke="none">
<path d="M8310 24724 c-156 -13 -278 -28 -370 -45 -659 -124 -1113 -465 -1316
-990 -45 -117 -84 -272 -84 -336 0 -47 4 -58 36 -93 21 -23 51 -44 73 -50 20
-6 228 -31 463 -56 414 -44 428 -45 463 -28 49 23 79 72 110 179 37 128 78
198 165 286 82 83 178 139 300 175 93 27 341 27 420 0 198 -67 305 -176 361
-366 19 -66 22 -106 26 -322 4 -205 3 -248 -8 -248 -26 0 -584 -61 -699 -76
-181 -24 -343 -52 -490 -86 -667 -151 -1095 -493 -1279 -1021 -114 -326 -114
-781 0 -1104 149 -422 462 -686 924 -780 125 -25 542 -25 690 0 362 63 591
183 918 482 71 64 130 115 131 113 1 -1 41 -59 89 -128 103 -149 193 -254 308
-356 94 -85 129 -104 191 -104 65 0 111 29 278 176 85 75 241 210 346 300 105
91 196 176 202 190 17 37 14 93 -7 140 -11 23 -55 91 -99 151 -145 199 -215
347 -241 513 -7 42 -11 394 -11 990 0 509 -5 1002 -10 1095 -24 437 -118 695
-333 922 -231 243 -601 405 -1057 463 -90 11 -414 21 -490 14z m647 -2921 c-6
-346 -14 -416 -67 -575 -93 -277 -269 -481 -486 -564 -52 -20 -94 -28 -170
-32 -173 -8 -276 29 -385 137 -78 78 -119 157 -150 287 -18 77 -20 109 -16
234 7 210 52 345 161 481 171 216 534 343 995 348 l123 1 -5 -317z"/>
<path d="M19670 24719 c-899 -74 -1493 -501 -1677 -1207 -32 -126 -35 -201 -7
-239 44 -61 74 -68 541 -117 464 -50 462 -50 514 0 31 30 48 67 83 186 62 206
227 361 451 424 92 25 286 30 379 9 167 -37 293 -130 360 -267 55 -112 67
-182 73 -445 5 -214 4 -233 -11 -233 -46 0 -691 -74 -832 -95 -615 -93 -983
-244 -1272 -519 -338 -324 -494 -786 -441 -1307 35 -350 151 -614 358 -819
167 -166 356 -264 621 -322 94 -20 131 -23 360 -22 218 0 273 3 379 22 348 62
653 233 945 530 l69 71 80 -117 c128 -188 241 -314 391 -436 40 -34 56 -40
105 -44 36 -3 69 1 92 11 20 8 96 68 170 133 74 66 230 201 347 302 116 100
220 194 229 209 23 34 21 112 -4 160 -11 21 -58 90 -104 153 -124 169 -185
294 -226 460 -14 57 -17 204 -23 1165 -7 1183 -6 1169 -61 1380 -138 535 -604
873 -1329 965 -122 15 -425 20 -560 9z m720 -2811 c-1 -447 -32 -626 -146
-848 -111 -216 -281 -365 -470 -414 -88 -23 -226 -21 -307 4 -240 74 -383 334
-363 657 16 254 118 458 294 587 120 88 315 161 522 195 150 25 178 27 343 29
l127 2 0 -212z"/>
<path d="M13385 24679 c-450 -28 -792 -274 -990 -714 -24 -53 -46 -99 -49
-102 -3 -4 -6 133 -6 304 0 305 0 311 -22 343 -13 18 -36 43 -51 54 -28 20
-40 21 -484 24 -439 2 -457 2 -497 -18 -22 -11 -52 -36 -66 -57 l-25 -37 0
-2281 0 -2281 25 -37 c14 -21 43 -46 66 -57 38 -19 62 -20 515 -20 472 0 474
0 513 23 22 12 49 38 60 57 21 35 21 45 27 1500 6 1604 3 1545 65 1758 64 221
191 360 369 407 74 19 242 20 311 1 121 -32 225 -119 284 -236 40 -80 76 -220
90 -351 6 -65 10 -625 10 -1568 l0 -1466 23 -40 c13 -22 40 -49 62 -62 40 -23
41 -23 512 -23 310 0 481 4 500 11 35 13 70 45 91 84 16 27 17 158 22 1515 6
1605 5 1554 59 1731 58 186 212 337 401 393 72 22 230 22 312 0 83 -21 131
-47 189 -101 57 -53 90 -106 117 -188 45 -133 45 -147 43 -1755 -2 -1065 0
-1538 8 -1566 12 -44 60 -97 104 -113 19 -7 190 -11 496 -11 464 0 467 0 511
23 33 16 51 34 68 67 l22 44 0 1774 c0 1176 -4 1805 -11 1870 -45 419 -199
694 -501 895 -211 140 -445 208 -725 208 -290 0 -528 -70 -750 -223 -165 -113
-328 -312 -412 -502 l-38 -86 -47 97 c-97 200 -234 382 -370 490 -221 174
-479 243 -831 222z"/>
<path d="M28194 24679 c-321 -19 -617 -117 -881 -292 -125 -83 -343 -293 -437
-420 -264 -357 -423 -804 -488 -1372 -17 -144 -17 -636 0 -780 63 -543 200
-954 435 -1305 147 -218 305 -377 512 -516 185 -123 392 -207 630 -254 154
-31 471 -39 638 -16 496 70 915 323 1225 741 243 328 397 721 474 1215 20 129
22 183 23 485 0 365 -9 468 -61 735 -123 623 -413 1130 -817 1433 -268 201
-608 325 -937 343 -52 2 -115 6 -140 7 -25 2 -104 0 -176 -4z m320 -939 c241
-61 363 -228 446 -608 55 -253 87 -715 77 -1127 -8 -298 -19 -433 -53 -620
-88 -494 -306 -745 -647 -745 -139 0 -236 40 -340 139 -156 149 -250 404 -303
826 -22 173 -31 947 -15 1150 50 595 215 908 521 989 81 22 222 20 314 -4z"/>
<path d="M33189 24678 c-463 -27 -794 -280 -1011 -772 l-53 -119 -5 349 c-5
346 -5 349 -28 382 -13 18 -41 41 -62 52 -37 19 -61 20 -480 20 -482 0 -479 0
-535 -59 l-30 -32 -3 -2290 c-2 -2539 -8 -2320 65 -2376 l36 -28 476 -3 c534
-3 537 -3 589 66 l27 35 6 1396 c4 982 9 1418 17 1471 32 208 84 382 148 497
73 131 205 244 332 283 76 24 211 27 288 6 168 -45 290 -184 344 -393 44 -173
44 -152 49 -1738 5 -1198 9 -1525 19 -1542 7 -12 29 -35 49 -50 l36 -28 476
-3 c315 -2 488 0 512 8 52 15 106 77 114 132 12 77 -1 3291 -14 3418 -41 423
-120 679 -269 876 -246 326 -607 472 -1093 442z"/>
<path d="M22750 24578 c-18 -13 -43 -36 -54 -51 -20 -27 -21 -41 -24 -395 -3
-365 -3 -367 20 -412 17 -33 35 -51 68 -67 l44 -23 758 0 c417 0 758 -2 758
-5 0 -3 -384 -556 -852 -1228 -469 -672 -868 -1251 -885 -1287 -65 -130 -66
-142 -71 -610 -2 -233 -1 -440 3 -458 8 -44 68 -109 112 -121 42 -12 54 -8
248 82 715 331 1548 386 2320 152 144 -43 367 -131 487 -191 102 -51 147 -56
199 -21 18 12 44 40 56 62 23 40 23 40 21 435 -3 389 -3 396 -26 446 -13 28
-38 65 -55 82 -109 104 -520 268 -832 331 -223 45 -384 62 -636 70 l-226 6
796 1137 c438 625 811 1162 829 1192 62 104 62 107 62 466 0 323 0 327 -22
360 -13 18 -39 41 -58 51 -33 18 -94 19 -1521 19 l-1486 0 -33 -22z"/>
</g>
</svg>
