<svg width="287" height="334" viewBox="0 0 287 334" fill="none" xmlns="http://www.w3.org/2000/svg">
<path d="M124.095 5.15143C128.038 2.533 133.154 2.48493 137.145 5.02878L265.235 86.6639L273.355 92.0489C279.649 96.2235 280.549 105.114 275.218 110.465L230.448 155.406C225.812 160.06 225.794 167.581 230.409 172.256L277.298 219.766C282.416 224.952 281.75 233.471 275.887 237.798L262.284 247.837L135.333 329.422C131.331 331.993 126.186 331.95 122.227 329.312L5.32873 251.389C1.99966 249.17 0 245.433 0 241.432V93.9785C0 89.9702 2.00697 86.2282 5.34602 84.0108L124.095 5.15143Z" fill="#000D4D"/>
<rect width="38.0659" height="127.879" rx="11.9654" transform="matrix(-0.686963 -0.726692 0.849293 -0.527921 128.342 299.529)" fill="#790F59"/>
<rect width="38.1996" height="126.381" rx="11.9654" transform="matrix(0.730627 -0.682777 0.817834 0.575453 26.9297 226.041)" fill="#790F59"/>
<path d="M225.312 96.4356C230.924 99.924 231.794 106.645 227.255 111.447L216.108 123.24C211.568 128.043 203.338 129.108 197.726 125.619L99.2781 64.4294L118.645 43.9412C123.184 39.1388 131.414 38.0736 137.026 41.562L225.312 96.4356Z" fill="#790F59"/>
<path d="M162.335 178.778C157.74 183.527 149.495 184.503 143.92 180.956L131.428 173.01C125.852 169.464 125.056 162.738 129.651 157.989L202.116 83.0752L224.704 97.4424C230.28 100.989 231.076 107.715 226.481 112.464L162.335 178.778Z" fill="#790F59"/>
<path d="M129.308 172.03C124.753 167.242 125.602 160.52 131.204 157.015L143.804 149.132C149.406 145.627 157.64 146.667 162.196 151.455L229.679 222.383C234.234 227.17 233.385 233.893 227.783 237.398L215.183 245.28C209.581 248.785 201.347 247.745 196.792 242.958L129.308 172.03Z" fill="#790F59"/>
<rect width="42.2407" height="126.389" rx="11.9654" transform="matrix(0.730844 0.682545 0.818007 -0.575208 26.9297 107.769)" fill="#790F59"/>
<rect x="31.6143" y="97.3555" width="44.6315" height="138.734" rx="11.9654" fill="#790F59"/>
</svg>
