<svg width="404" height="423" viewBox="0 0 404 423" fill="#ADADAD" xmlns="http://www.w3.org/2000/svg">
<path d="M40.2485 252.325C41.7467 255.607 43.6825 258.553 45.9887 261.146C41.0093 263.821 35.4301 265.182 29.7782 265.101C12.524 265.101 0 253.722 0 235.576C0 217.295 13.1637 205.915 29.7782 205.915C35.6867 205.915 40.3495 207.195 45.0628 209.703C42.8577 212.396 41.0565 215.46 39.6762 218.81C36.8912 217.704 33.9194 217.144 30.9228 217.16C20.705 217.16 12.7765 223.691 12.7765 235.576C12.7765 246.82 20.4525 253.991 31.4447 253.991C34.5925 253.991 37.5047 253.419 40.2485 252.325ZM74.9588 205.915C91.9605 205.915 104.232 217.934 104.232 235.576C104.232 253.082 91.9605 265.101 74.9588 265.101C58.0918 265.101 45.8203 253.082 45.8203 235.576C45.8203 217.934 58.0918 205.915 74.9588 205.915ZM74.9588 216.773C65.4985 216.773 58.5968 224.062 58.5968 235.576C58.5968 246.955 65.4985 254.244 74.9588 254.244C84.6717 254.244 91.4555 246.955 91.4555 235.576C91.4555 224.062 84.6717 216.773 74.9588 216.773ZM112.278 263.822V207.195H124.92V263.822H112.278ZM110.612 189.806C110.743 187.792 111.636 185.904 113.108 184.525C114.58 183.145 116.523 182.378 118.54 182.378C120.558 182.378 122.5 183.145 123.973 184.525C125.445 185.904 126.338 187.792 126.469 189.806C126.46 191.917 125.626 193.941 124.144 195.445C122.663 196.949 120.651 197.813 118.54 197.852C116.43 197.813 114.418 196.949 112.936 195.445C111.455 193.941 110.62 191.917 110.612 189.806ZM135.963 210.78C144.257 207.65 153.038 206.003 161.903 205.915C176.346 205.915 185.554 211.403 185.554 227.395V263.822H173.03V228.539C173.03 220.358 167.913 217.413 160.893 217.413C156.744 217.381 152.612 217.943 148.622 219.079V263.822H135.963V210.78ZM196.142 176.895H208.801V208.727C211.477 207.313 216.729 205.915 221.695 205.915C238.057 205.915 250.329 216.403 250.329 234.549C250.329 252.83 238.192 265.101 217.234 265.101C209.053 265.101 201.899 263.452 196.142 261.398V176.895ZM208.801 253.099C211.225 253.857 214.423 254.244 217.621 254.244C229.236 254.244 237.552 247.847 237.552 234.801C237.552 223.809 229.758 217.295 220.18 217.295C216.223 217.224 212.311 218.144 208.801 219.971V253.099ZM286.874 225.863C286.874 219.719 282.278 216.908 276.016 216.908C270.248 216.936 264.594 218.524 259.654 221.503V210.511C265.296 207.437 271.629 205.856 278.053 205.915C290.459 205.915 299.263 211.033 299.263 225.223V262.677C292.904 264.193 286.391 264.967 279.854 264.984C265.159 264.984 254.419 260.506 254.419 247.713C254.419 236.215 264.25 230.593 280.612 230.593H286.874V225.863ZM286.874 239.027H281.504C272.683 239.027 266.943 241.585 266.943 247.342C266.943 253.217 272.313 255.523 279.972 255.523C281.891 255.523 284.584 255.254 286.874 254.884V239.027ZM308.471 248.487C313.706 252.443 319.968 254.884 325.725 254.884C331.347 254.884 335.051 252.965 335.051 248.487C335.051 243.875 331.735 242.225 324.446 240.306C312.696 237.613 307.697 232.882 307.697 223.052C307.697 211.538 316.399 205.915 327.897 205.915C334.293 205.915 339.394 207.313 344.124 210.258V221.89C339.141 218.322 334.293 216.133 328.284 216.133C322.779 216.133 319.85 218.827 319.85 222.53C319.85 226.233 322.274 228.152 328.789 229.953C341.7 232.765 347.322 237.613 347.322 247.847C347.322 259.732 338.249 265.101 325.978 265.101C319.328 265.101 312.696 263.317 308.471 260.506V248.487ZM364.644 238.387V238.639C365.401 248.739 374.104 254.244 382.908 254.244C390.702 254.244 396.341 252.443 401.946 248.739V259.866C396.846 263.452 389.305 265.101 382.016 265.101C364.391 265.101 352.372 253.857 352.372 235.963C352.372 217.934 364.122 205.915 379.726 205.915C396.206 205.915 404 216.52 404 231.99V238.387H364.644ZM392.116 230.206C391.863 221.385 387.52 216.52 379.339 216.52C372.05 216.52 366.681 221.638 365.031 230.206H392.116Z" fill="#ADADAD"/>
<path d="M202.5 145C242.541 145 275 112.541 275 72.5C275 32.4594 242.541 0 202.5 0C162.459 0 130 32.4594 130 72.5C130 112.541 162.459 145 202.5 145Z" fill="#ADADAD"/>
<path d="M203.109 51.2357C211.645 51.2357 218.416 56.5004 220.987 64.3296H238.184C235.068 47.5909 221.258 36.25 203.246 36.25C182.792 36.25 166.816 51.7766 166.816 72.5694C166.816 93.3622 182.393 108.75 203.246 108.75C220.854 108.75 234.939 97.4091 238.058 80.5316H220.986C218.548 88.3622 211.782 93.7643 203.241 93.7643C191.455 93.7643 183.195 84.7174 183.195 72.5694C183.201 60.2826 191.328 51.2357 203.109 51.2357V51.2357Z" fill="white"/>
</svg>
