<?xml version="1.0" standalone="no"?>
<!DOCTYPE svg PUBLIC "-//W3C//DTD SVG 20010904//EN"
 "http://www.w3.org/TR/2001/REC-SVG-20010904/DTD/svg10.dtd">
<svg version="1.0" xmlns="http://www.w3.org/2000/svg"
 width="924.000000pt" height="980.000000pt" viewBox="0 0 924.000000 980.000000"
 preserveAspectRatio="xMidYMid meet">
<metadata>
Created by potrace 1.16, written by Peter Selinger 2001-2019
</metadata>
<g transform="translate(0.000000,980.000000) scale(0.100000,-0.100000)"
fill="#790f59" stroke="none">
<path d="M4445 9794 c-335 -25 -497 -46 -734 -94 -433 -88 -817 -223 -1226
-430 -486 -245 -865 -520 -1255 -910 -245 -244 -463 -506 -625 -752 -21 -32
-40 -58 -42 -58 -3 0 -129 121 -281 270 l-277 269 -2 -322 c-2 -177 1 -664 5
-1083 l7 -761 515 299 c283 164 703 407 933 540 229 133 417 245 417 250 0 4
-5 8 -11 8 -6 0 -220 66 -474 147 l-463 147 61 91 c309 461 757 904 1237 1220
1158 765 2600 950 3914 504 927 -315 1737 -939 2283 -1759 127 -190 162 -252
303 -534 113 -227 129 -253 168 -281 40 -27 51 -30 122 -30 71 0 82 3 121 30
57 40 94 111 92 179 0 39 -13 79 -52 166 -177 391 -429 792 -722 1145 -107
130 -486 508 -614 614 -491 405 -1019 700 -1607 895 -312 104 -685 183 -1038
221 -137 15 -644 28 -755 19z"/>
<path d="M4524 7451 c-49 -22 -97 -78 -113 -130 -6 -21 -11 -101 -11 -179 l0
-140 -77 -17 c-439 -98 -702 -356 -799 -784 -65 -289 -49 -561 43 -746 65
-129 208 -283 351 -376 97 -64 270 -148 390 -189 l92 -33 0 -803 c0 -442 -4
-804 -8 -804 -5 0 -34 9 -65 19 -200 69 -358 212 -460 416 -48 97 -80 190
-112 328 -40 169 -78 216 -179 225 -72 6 -98 -2 -141 -40 -77 -67 -82 -126
-31 -328 139 -554 434 -878 893 -981 l102 -23 3 -181 3 -182 30 -48 c79 -127
261 -133 359 -12 l31 39 5 181 5 181 110 23 c525 109 807 391 901 898 28 150
26 409 -4 529 -66 265 -224 475 -480 641 -100 64 -295 156 -424 201 l-108 36
0 704 c0 593 2 704 14 704 7 0 49 -18 92 -40 216 -108 350 -298 439 -623 19
-69 70 -130 122 -148 19 -6 62 -9 94 -7 71 5 122 40 157 108 29 58 28 89 -9
238 -120 489 -389 772 -819 861 l-85 18 -5 176 c-5 175 -5 175 -35 218 -59 83
-176 113 -271 70z m-126 -1835 l-3 -324 -92 43 c-231 108 -376 247 -434 416
-19 56 -21 79 -16 189 8 202 60 332 182 456 78 79 150 122 275 164 l85 29 3
-324 c1 -179 1 -471 0 -649z m682 -996 c212 -106 358 -266 399 -435 17 -68 15
-241 -4 -347 -44 -253 -163 -427 -357 -522 -75 -37 -209 -76 -260 -76 l-28 0
0 733 c0 404 2 736 5 739 8 8 165 -51 245 -92z"/>
<path d="M8233 3047 c-541 -271 -983 -494 -983 -497 0 -3 210 -59 468 -124
257 -65 469 -119 470 -121 2 -2 -23 -39 -56 -82 -318 -418 -677 -755 -1102
-1037 -210 -139 -287 -184 -485 -284 -1193 -596 -2606 -626 -3820 -81 -851
382 -1555 1010 -2037 1817 -38 64 -112 205 -164 312 -137 282 -137 282 -183
315 -54 38 -157 48 -212 20 -80 -40 -123 -109 -123 -195 0 -63 39 -159 161
-397 483 -942 1257 -1710 2201 -2182 517 -259 1083 -422 1692 -487 202 -22
728 -25 920 -6 636 64 1169 212 1705 472 708 342 1310 837 1788 1468 l100 132
21 -19 c12 -11 156 -171 321 -355 165 -184 303 -335 308 -335 4 -1 7 485 7
1079 0 594 -3 1080 -7 1079 -5 0 -450 -221 -990 -492z"/>
</g>
</svg>
