<svg xmlns="http://www.w3.org/2000/svg" version="1.1" xmlns:xlink="http://www.w3.org/1999/xlink" xmlns:svgjs="http://svgjs.com/svgjs" width="1440" height="560" preserveAspectRatio="none" viewBox="0 0 1440 560"><g mask="url(&quot;#SvgjsMask1011&quot;)" fill="none"><rect width="1440" height="560" x="0" y="0" fill="rgba(109, 19, 82, 1)"></rect><path d="M133.14 93.2L198.1 130.7L198.1 205.7L133.14 243.2L68.19 205.7L68.19 130.7zM198.1 205.7L263.05 243.2L263.05 318.2L198.1 355.7L133.14 318.2L133.14 243.2zM198.1 430.7L263.05 468.2L263.05 543.2L198.1 580.7L133.14 543.2L133.14 468.2zM263.05 543.2L328 580.7L328 655.7L263.05 693.2L198.1 655.7L198.1 580.7zM328 205.7L392.96 243.2L392.96 318.2L328 355.7L263.05 318.2L263.05 243.2zM457.91 205.7L522.87 243.2L522.87 318.2L457.91 355.7L392.96 318.2L392.96 243.2zM717.73 -19.3L782.68 18.2L782.68 93.2L717.73 130.7L652.77 93.2L652.77 18.2zM782.68 93.2L847.63 130.7L847.63 205.7L782.68 243.2L717.73 205.7L717.73 130.7zM782.68 318.2L847.63 355.7L847.63 430.7L782.68 468.2L717.73 430.7L717.73 355.7zM1172.4 318.2L1237.36 355.7L1237.36 430.7L1172.4 468.2L1107.45 430.7L1107.45 355.7z" stroke="rgba(146, 9, 105, 1)" stroke-width="2"></path><path d="M125.64 93.2 a7.5 7.5 0 1 0 15 0 a7.5 7.5 0 1 0 -15 0zM190.6 130.7 a7.5 7.5 0 1 0 15 0 a7.5 7.5 0 1 0 -15 0zM190.6 205.7 a7.5 7.5 0 1 0 15 0 a7.5 7.5 0 1 0 -15 0zM125.64 243.2 a7.5 7.5 0 1 0 15 0 a7.5 7.5 0 1 0 -15 0zM60.69 205.7 a7.5 7.5 0 1 0 15 0 a7.5 7.5 0 1 0 -15 0zM60.69 130.7 a7.5 7.5 0 1 0 15 0 a7.5 7.5 0 1 0 -15 0zM255.55 243.2 a7.5 7.5 0 1 0 15 0 a7.5 7.5 0 1 0 -15 0zM255.55 318.2 a7.5 7.5 0 1 0 15 0 a7.5 7.5 0 1 0 -15 0zM190.6 355.7 a7.5 7.5 0 1 0 15 0 a7.5 7.5 0 1 0 -15 0zM125.64 318.2 a7.5 7.5 0 1 0 15 0 a7.5 7.5 0 1 0 -15 0zM190.6 430.7 a7.5 7.5 0 1 0 15 0 a7.5 7.5 0 1 0 -15 0zM255.55 468.2 a7.5 7.5 0 1 0 15 0 a7.5 7.5 0 1 0 -15 0zM255.55 543.2 a7.5 7.5 0 1 0 15 0 a7.5 7.5 0 1 0 -15 0zM190.6 580.7 a7.5 7.5 0 1 0 15 0 a7.5 7.5 0 1 0 -15 0zM125.64 543.2 a7.5 7.5 0 1 0 15 0 a7.5 7.5 0 1 0 -15 0zM125.64 468.2 a7.5 7.5 0 1 0 15 0 a7.5 7.5 0 1 0 -15 0zM320.5 580.7 a7.5 7.5 0 1 0 15 0 a7.5 7.5 0 1 0 -15 0zM320.5 655.7 a7.5 7.5 0 1 0 15 0 a7.5 7.5 0 1 0 -15 0zM255.55 693.2 a7.5 7.5 0 1 0 15 0 a7.5 7.5 0 1 0 -15 0zM190.6 655.7 a7.5 7.5 0 1 0 15 0 a7.5 7.5 0 1 0 -15 0zM320.5 205.7 a7.5 7.5 0 1 0 15 0 a7.5 7.5 0 1 0 -15 0zM385.46 243.2 a7.5 7.5 0 1 0 15 0 a7.5 7.5 0 1 0 -15 0zM385.46 318.2 a7.5 7.5 0 1 0 15 0 a7.5 7.5 0 1 0 -15 0zM320.5 355.7 a7.5 7.5 0 1 0 15 0 a7.5 7.5 0 1 0 -15 0zM450.41 205.7 a7.5 7.5 0 1 0 15 0 a7.5 7.5 0 1 0 -15 0zM515.37 243.2 a7.5 7.5 0 1 0 15 0 a7.5 7.5 0 1 0 -15 0zM515.37 318.2 a7.5 7.5 0 1 0 15 0 a7.5 7.5 0 1 0 -15 0zM450.41 355.7 a7.5 7.5 0 1 0 15 0 a7.5 7.5 0 1 0 -15 0zM710.23 -19.3 a7.5 7.5 0 1 0 15 0 a7.5 7.5 0 1 0 -15 0zM775.18 18.2 a7.5 7.5 0 1 0 15 0 a7.5 7.5 0 1 0 -15 0zM775.18 93.2 a7.5 7.5 0 1 0 15 0 a7.5 7.5 0 1 0 -15 0zM710.23 130.7 a7.5 7.5 0 1 0 15 0 a7.5 7.5 0 1 0 -15 0zM645.27 93.2 a7.5 7.5 0 1 0 15 0 a7.5 7.5 0 1 0 -15 0zM645.27 18.2 a7.5 7.5 0 1 0 15 0 a7.5 7.5 0 1 0 -15 0zM840.13 130.7 a7.5 7.5 0 1 0 15 0 a7.5 7.5 0 1 0 -15 0zM840.13 205.7 a7.5 7.5 0 1 0 15 0 a7.5 7.5 0 1 0 -15 0zM775.18 243.2 a7.5 7.5 0 1 0 15 0 a7.5 7.5 0 1 0 -15 0zM710.23 205.7 a7.5 7.5 0 1 0 15 0 a7.5 7.5 0 1 0 -15 0zM775.18 318.2 a7.5 7.5 0 1 0 15 0 a7.5 7.5 0 1 0 -15 0zM840.13 355.7 a7.5 7.5 0 1 0 15 0 a7.5 7.5 0 1 0 -15 0zM840.13 430.7 a7.5 7.5 0 1 0 15 0 a7.5 7.5 0 1 0 -15 0zM775.18 468.2 a7.5 7.5 0 1 0 15 0 a7.5 7.5 0 1 0 -15 0zM710.23 430.7 a7.5 7.5 0 1 0 15 0 a7.5 7.5 0 1 0 -15 0zM710.23 355.7 a7.5 7.5 0 1 0 15 0 a7.5 7.5 0 1 0 -15 0zM1164.9 318.2 a7.5 7.5 0 1 0 15 0 a7.5 7.5 0 1 0 -15 0zM1229.86 355.7 a7.5 7.5 0 1 0 15 0 a7.5 7.5 0 1 0 -15 0zM1229.86 430.7 a7.5 7.5 0 1 0 15 0 a7.5 7.5 0 1 0 -15 0zM1164.9 468.2 a7.5 7.5 0 1 0 15 0 a7.5 7.5 0 1 0 -15 0zM1099.95 430.7 a7.5 7.5 0 1 0 15 0 a7.5 7.5 0 1 0 -15 0zM1099.95 355.7 a7.5 7.5 0 1 0 15 0 a7.5 7.5 0 1 0 -15 0z" fill="rgba(146, 9, 105, 1)"></path><path d="M47.15 266.96L90.45 291.96L90.45 341.96L47.15 366.96L3.85 341.96L3.85 291.96zM177.06 341.96L220.36 366.96L220.36 416.96L177.06 441.96L133.75 416.96L133.75 366.96zM177.06 491.96L220.36 516.96L220.36 566.96L177.06 591.96L133.75 566.96L133.75 516.96zM220.36 -33.04L263.66 -8.04L263.66 41.96L220.36 66.96L177.06 41.96L177.06 -8.04zM263.66 41.96L306.96 66.96L306.96 116.96L263.66 141.96L220.36 116.96L220.36 66.96zM220.36 416.96L263.66 441.96L263.66 491.96L220.36 516.96L177.06 491.96L177.06 441.96zM263.66 491.96L306.96 516.96L306.96 566.96L263.66 591.96L220.36 566.96L220.36 516.96zM306.96 -33.04L350.27 -8.04L350.27 41.96L306.96 66.96L263.66 41.96L263.66 -8.04zM306.96 116.96L350.27 141.96L350.27 191.96L306.96 216.96L263.66 191.96L263.66 141.96zM306.96 266.96L350.27 291.96L350.27 341.96L306.96 366.96L263.66 341.96L263.66 291.96zM350.27 341.96L393.57 366.96L393.57 416.96L350.27 441.96L306.96 416.96L306.96 366.96zM436.87 191.96L480.18 216.96L480.18 266.96L436.87 291.96L393.57 266.96L393.57 216.96zM480.18 116.96L523.48 141.96L523.48 191.96L480.18 216.96L436.87 191.96L436.87 141.96zM566.78 -33.04L610.08 -8.04L610.08 41.96L566.78 66.96L523.48 41.96L523.48 -8.04zM566.78 116.96L610.08 141.96L610.08 191.96L566.78 216.96L523.48 191.96L523.48 141.96zM610.08 191.96L653.38 216.96L653.38 266.96L610.08 291.96L566.78 266.96L566.78 216.96zM610.08 341.96L653.38 366.96L653.38 416.96L610.08 441.96L566.78 416.96L566.78 366.96zM566.78 416.96L610.08 441.96L610.08 491.96L566.78 516.96L523.48 491.96L523.48 441.96zM653.38 -33.04L696.69 -8.04L696.69 41.96L653.38 66.96L610.08 41.96L610.08 -8.04zM696.69 41.96L739.99 66.96L739.99 116.96L696.69 141.96L653.38 116.96L653.38 66.96zM696.69 341.96L739.99 366.96L739.99 416.96L696.69 441.96L653.38 416.96L653.38 366.96zM739.99 -33.04L783.29 -8.04L783.29 41.96L739.99 66.96L696.69 41.96L696.69 -8.04zM739.99 416.96L783.29 441.96L783.29 491.96L739.99 516.96L696.69 491.96L696.69 441.96zM783.29 491.96L826.6 516.96L826.6 566.96L783.29 591.96L739.99 566.96L739.99 516.96zM956.5 41.96L999.81 66.96L999.81 116.96L956.5 141.96L913.2 116.96L913.2 66.96zM999.81 -33.04L1043.11 -8.04L1043.11 41.96L999.81 66.96L956.5 41.96L956.5 -8.04zM1173.02 116.96L1216.32 141.96L1216.32 191.96L1173.02 216.96L1129.71 191.96L1129.71 141.96zM1302.92 41.96L1346.23 66.96L1346.23 116.96L1302.92 141.96L1259.62 116.96L1259.62 66.96zM1259.62 116.96L1302.92 141.96L1302.92 191.96L1259.62 216.96L1216.32 191.96L1216.32 141.96zM1346.23 266.96L1389.53 291.96L1389.53 341.96L1346.23 366.96L1302.92 341.96L1302.92 291.96zM1389.53 341.96L1432.83 366.96L1432.83 416.96L1389.53 441.96L1346.23 416.96L1346.23 366.96zM1476.13 41.96L1519.44 66.96L1519.44 116.96L1476.13 141.96L1432.83 116.96L1432.83 66.96zM1476.13 191.96L1519.44 216.96L1519.44 266.96L1476.13 291.96L1432.83 266.96L1432.83 216.96zM1432.83 266.96L1476.13 291.96L1476.13 341.96L1432.83 366.96L1389.53 341.96L1389.53 291.96z" stroke="rgba(121, 15, 89, 0.93)" stroke-width="2"></path></g><defs><mask id="SvgjsMask1011"><rect width="1440" height="560" fill="#ffffff"></rect></mask></defs></svg>