<?xml version="1.0" standalone="no"?>
<!DOCTYPE svg PUBLIC "-//W3C//DTD SVG 20010904//EN"
 "http://www.w3.org/TR/2001/REC-SVG-20010904/DTD/svg10.dtd">
<svg version="1.0" xmlns="http://www.w3.org/2000/svg"
 width="4096.000000pt" height="4096.000000pt" viewBox="0 0 4096.000000 4096.000000"
 preserveAspectRatio="xMidYMid meet">
<metadata>
Created by potrace 1.16, written by Peter Selinger 2001-2019
</metadata>
<g transform="translate(0.000000,4096.000000) scale(0.100000,-0.100000)"
fill="#ADADAD" stroke="none">
<path d="M21495 24444 c-704 -134 -1283 -244 -1287 -244 -11 0 -10 -250 0
-250 51 0 371 -53 410 -68 133 -51 200 -118 252 -254 96 -248 115 -422 140
-1288 33 -1139 14 -5023 -29 -5660 -4 -63 -6 -117 -5 -119 5 -6 312 -69 566
-115 757 -139 1437 -198 1933 -166 867 56 1521 319 2039 820 600 581 897 1320
932 2315 29 823 -191 1539 -643 2090 -350 427 -779 681 -1303 770 -128 22
-476 31 -620 16 -323 -34 -658 -125 -1003 -272 -75 -33 -140 -59 -144 -59 -9
0 4 1373 17 1730 5 162 14 390 20 505 5 116 13 274 16 353 4 83 3 142 -2 141
-5 0 -585 -110 -1289 -245z m2030 -2833 c202 -42 351 -124 505 -280 257 -259
450 -680 539 -1180 101 -561 69 -1347 -79 -1946 -184 -746 -540 -1296 -948
-1464 -169 -70 -280 -81 -462 -48 -74 14 -167 29 -206 32 -40 4 -77 11 -84 15
-35 22 -65 1428 -77 3532 l-6 1276 54 16 c165 47 298 64 509 65 125 1 187 -4
255 -18z"/>
<path d="M3720 24345 c0 -160 2 -175 18 -175 86 -1 402 -43 472 -64 390 -114
558 -339 620 -826 22 -180 75 -1046 102 -1680 17 -400 17 -2031 0 -2400 -28
-611 -69 -1204 -98 -1430 -43 -338 -122 -588 -224 -710 -53 -63 -142 -130
-228 -171 -93 -44 -213 -72 -454 -105 l-208 -28 0 -173 0 -173 2185 0 2185 0
0 173 0 173 -245 17 c-359 26 -509 71 -668 202 -162 134 -253 338 -296 670
-41 307 -90 1348 -106 2223 l-7 342 164 -1 c382 -1 844 -18 908 -32 337 -77
591 -351 748 -809 22 -62 50 -157 63 -210 l23 -98 173 0 173 0 0 1385 0 1385
-174 0 -174 0 -6 -35 c-14 -70 -66 -242 -106 -344 -158 -404 -380 -633 -693
-712 -74 -19 -130 -22 -584 -32 -277 -6 -506 -8 -509 -4 -8 7 13 1657 26 2057
16 502 43 1043 56 1148 l5 43 787 -4 c875 -4 855 -3 1094 -77 305 -95 608
-305 825 -574 208 -258 389 -607 529 -1016 29 -85 56 -154 61 -154 20 4 398
116 402 119 2 3 -11 515 -30 1140 l-33 1135 -3388 0 -3388 0 0 -175z"/>
<path d="M12415 22363 c-648 -43 -1237 -262 -1665 -621 -115 -96 -320 -305
-413 -422 -354 -441 -562 -972 -629 -1610 -20 -187 -16 -678 6 -860 81 -674
291 -1199 667 -1665 395 -491 925 -776 1630 -875 410 -58 860 -49 1265 25 460
85 910 292 1244 573 121 101 305 291 408 420 451 566 660 1261 639 2117 -15
567 -118 1017 -337 1460 -140 284 -321 544 -518 742 -420 422 -980 656 -1711
713 -123 9 -464 11 -586 3z m387 -412 c309 -79 540 -363 719 -879 183 -530
262 -1334 219 -2232 -63 -1330 -359 -2035 -908 -2167 -91 -22 -267 -21 -352 1
-316 84 -558 373 -730 873 -191 552 -271 1335 -230 2233 47 1012 226 1654 550
1969 112 110 230 175 374 206 95 21 269 19 358 -4z"/>
<path d="M16885 22116 l-1270 -252 -3 -121 -3 -122 43 -5 c24 -3 86 -8 138
-11 52 -4 118 -11 145 -17 216 -45 374 -228 439 -512 25 -106 59 -474 86 -941
18 -291 24 -1193 11 -1540 -21 -572 -61 -1116 -92 -1270 -50 -244 -159 -410
-324 -490 -88 -43 -145 -58 -312 -80 l-133 -18 0 -163 0 -164 1800 0 1800 0 0
165 c0 164 0 165 -22 165 -57 0 -430 31 -488 41 -187 30 -342 170 -417 377
-39 106 -60 221 -82 447 -56 570 -75 995 -75 1645 0 519 6 694 36 1174 12 187
12 190 43 235 42 62 157 143 258 182 148 57 298 83 492 83 139 0 191 -4 285
-22 176 -36 366 -103 550 -195 91 -45 169 -82 173 -82 9 0 627 1547 627 1569
0 14 -80 51 -198 90 -224 76 -544 106 -759 71 -222 -36 -471 -154 -729 -345
-263 -195 -477 -460 -651 -805 l-75 -150 7 658 c7 636 7 657 -11 656 -11 -1
-590 -115 -1289 -253z"/>
<path d="M34885 22363 c-667 -44 -1205 -275 -1605 -689 -205 -212 -324 -408
-404 -665 -48 -152 -66 -265 -73 -439 -19 -489 124 -887 416 -1162 260 -245
591 -425 1181 -643 371 -137 649 -266 827 -385 165 -110 294 -272 357 -448 29
-83 31 -94 31 -247 0 -123 -4 -175 -18 -225 -23 -86 -77 -199 -131 -275 -56
-78 -206 -220 -279 -264 -149 -88 -322 -130 -539 -131 -525 -1 -965 278 -1315
834 -110 175 -254 472 -334 689 -17 45 -34 86 -39 91 -4 4 -73 -11 -153 -34
l-146 -43 5 -66 c2 -36 18 -417 35 -846 17 -429 34 -783 38 -788 12 -12 251
-94 402 -138 822 -238 1854 -286 2546 -118 353 85 646 228 918 446 408 326
614 766 632 1348 18 566 -135 947 -502 1254 -198 165 -549 361 -870 486 -576
224 -861 354 -1058 485 -353 234 -483 537 -401 940 57 276 264 516 509 589
224 67 534 35 772 -79 398 -190 688 -582 923 -1248 19 -52 38 -91 44 -89 6 2
73 21 148 43 l138 39 -5 75 c-3 41 -19 370 -36 730 -16 360 -33 658 -37 661
-4 4 -50 23 -102 44 -474 186 -1019 278 -1615 273 -115 -1 -232 -3 -260 -5z"/>
<path d="M29595 22343 c-814 -68 -1448 -372 -1914 -918 -422 -493 -652 -1038
-733 -1740 -17 -142 -17 -685 0 -820 90 -737 343 -1280 816 -1750 225 -223
450 -388 711 -522 483 -246 1049 -355 1635 -314 479 33 810 128 1225 349 348
185 656 431 838 669 l48 63 -88 105 c-77 92 -89 103 -105 92 -243 -171 -428
-263 -664 -332 -437 -127 -1026 -101 -1444 64 -215 85 -403 205 -560 361 -349
344 -574 817 -640 1340 -18 143 -31 420 -24 513 l7 87 1808 0 1809 0 0 63 c0
99 -19 351 -35 482 -84 659 -351 1238 -752 1626 -336 326 -753 513 -1278 574
-118 14 -535 19 -660 8z m296 -389 c169 -50 291 -166 389 -369 107 -221 173
-508 210 -910 11 -119 30 -626 24 -634 -2 -2 -81 -6 -176 -8 -368 -9 -1603
-31 -1606 -28 -6 5 20 312 38 451 71 543 254 1024 490 1287 92 102 222 181
349 212 79 19 216 18 282 -1z"/>
</g>
</svg>
