<?xml version="1.0" standalone="no"?>
<!DOCTYPE svg PUBLIC "-//W3C//DTD SVG 20010904//EN"
 "http://www.w3.org/TR/2001/REC-SVG-20010904/DTD/svg10.dtd">
<svg version="1.0" xmlns="http://www.w3.org/2000/svg"
 width="512.000000pt" height="512.000000pt" viewBox="0 0 512.000000 512.000000"
 preserveAspectRatio="xMidYMid meet">
<metadata>
Created by potrace 1.16, written by Peter Selinger 2001-2019
</metadata>
<g transform="translate(0.000000,512.000000) scale(0.100000,-0.100000)"
fill="#790F59" stroke="none">
<path d="M1040 4941 c-417 -89 -729 -393 -853 -831 -21 -74 -22 -91 -25 -995
-4 -990 -3 -998 49 -1157 131 -403 507 -712 919 -755 l60 -6 0 -498 c0 -486 1
-500 20 -519 14 -14 33 -20 62 -20 l43 0 515 515 515 514 840 3 840 3 96 27
c137 37 234 80 341 151 223 146 387 372 465 638 l27 94 4 925 c4 984 3 1001
-45 1155 -51 164 -135 305 -257 433 -166 173 -349 276 -575 322 -97 20 -130
20 -1528 19 -1337 0 -1433 -2 -1513 -18z m815 -1655 c89 -41 135 -115 135
-213 0 -144 -144 -260 -277 -225 -70 19 -119 55 -153 115 -68 119 -22 265 105
323 64 31 126 31 190 0z m800 0 c89 -41 135 -115 135 -213 0 -144 -144 -260
-277 -225 -70 19 -119 55 -153 115 -68 119 -22 265 105 323 64 31 126 31 190
0z m800 0 c89 -41 135 -115 135 -213 0 -144 -144 -260 -277 -225 -70 19 -119
55 -153 115 -68 119 -22 265 105 323 64 31 126 31 190 0z"/>
</g>
</svg>
